<?xml version="1.0" encoding="utf-8"?>
<!-- Generator: Adobe Illustrator 21.1.0, SVG Export Plug-In . SVG Version: 6.00 Build 0)  -->
<svg version="1.1" xmlns="http://www.w3.org/2000/svg" xmlns:xlink="http://www.w3.org/1999/xlink" x="0px" y="0px"
	 viewBox="0 0 1366 768" style="enable-background:new 0 0 1366 768;" xml:space="preserve">
<style type="text/css">
	.st0{display:none;}
	.st1{display:inline;}
	.st2{fill:#424242;}
	.st3{opacity:0.48;fill:#203B6B;}
	.st4{fill:#FFFFFF;}
	.st5{fill:#34495E;}
	.st6{display:none;fill:none;}
</style>
<g id="Layer_1" class="st0">
	<g id="CHeYRt.tif" class="st1">
		<g>
			<path class="st2" d="M630.9,371.3c11.6-19.9,23.1-39.5,34.9-59.7c11.4,19.4,22.7,38.6,34.6,58.7c0.4,1.3-0.5,3.5-1.2,5.7
				c-2.7,9.1-5.8,18.1-8.6,27.1c-2.3,7.4-5,14.6-7.1,22.1c-1.2,4.4-2.8,8.7-3.9,13c-9.2,0-18,0-27.2,0c-1.1-3-2.6-5.8-3.3-8.9
				c-1.8-7.2-4.6-14-6.6-21.1c-1.9-7.2-4.7-14-6.6-21.2c-1.2-4.4-2.6-8.8-4-13.1C631.6,373,631.2,372,630.9,371.3z"/>
			<path class="st2" d="M618.3,328.3c4.5-6.3,9.2-12.8,13.9-19.4c3.7-5.3,7.4-10.6,11.1-15.8c3.5-5,6.7-10.2,10.5-15
				c3.7-4.8,7-10,10.4-15c0.2,0.1,0.4,0.2,0.5,0.3c0.1,0.1,0.2,0.3,0.2,0.5c0,15.5,0,31,0,46c-4.6,8.4-9.1,16.2-13.8,23.9
				c-5.6,9.2-10.5,18.9-16.7,27.8c-1.4,1.9-2.1,4.3-3.4,7.3c-3.6-6.7-4.8-13.4-6.8-19.7C622.3,342.4,620.4,335.8,618.3,328.3z"/>
			<path class="st2" d="M713.7,328.7c-4,13.1-7.9,26-11.9,39.2c-2-0.8-2.7-3-3.7-4.7c-6.2-9.9-11.8-20.2-17.9-30.2
				c-3.1-5.1-6.1-10.3-9-15.6c-0.5-0.9-0.9-2-1.6-2.7c-2-2-2.2-4.4-2.2-7.1c0.1-13.1,0-26.2,0-39.3c0-1.7-0.4-3.4-0.6-5.5
				c0.4,0.1,1.4,0.1,1.6,0.5c3.7,6.6,8.5,12.5,12.9,18.6c3.4,4.6,6.4,9.5,9.7,14.2c4.1,5.7,8.4,11.3,12.4,17.1
				C706.9,318.5,710.4,323.7,713.7,328.7z"/>
			<path class="st2" d="M738.3,438.1c-18.9,0-37.4,0-56.2,0c0.2-3.1,1.3-6.1,2.3-9.1c3.7-11.3,7.2-22.8,10.8-34.2
				c2.2-7,4.8-14,6.7-21.7c0.7,1,1.4,1.8,1.8,2.6c4.8,8.4,9.2,17.1,14.5,25.3c2.7,4.3,4.7,9,7.2,13.5c2.3,4.2,5,8.2,7.3,12.3
				C734.6,430.5,736.3,434.1,738.3,438.1z"/>
			<path class="st2" d="M630.4,374.5c6.6,21,13.3,42.1,19.9,63.1c-0.1,0.2-0.2,0.4-0.3,0.5c-0.1,0.1-0.3,0.3-0.4,0.3
				c-18.6,0-37.1,0-56.2,0c2.9-5.4,5.3-10.8,8.4-15.7c2.3-3.6,4.2-7.4,6.3-11c4.6-8.1,9.1-16.3,13.7-24.4c2.3-4.2,4.8-8.3,7.2-12.4
				C629,374.7,629.6,374.7,630.4,374.5z"/>
			<path class="st2" d="M681,439.8c19,0,37.3,0,56.6,0c-23.8,14.4-46.5,28.7-70.3,42.6C672.1,467.6,676.5,453.7,681,439.8z"/>
			<path class="st2" d="M594.4,439.7c19.4,0,37.4,0,55.4,0c3.3,2.8,3.7,7.2,4.8,11c2.4,8.3,4.9,16.5,7.9,24.6
				c0.7,1.9,0.8,4.1,1.4,6.9c-11.8-7.1-23.1-13.8-34.4-20.7C618.1,454.5,606.8,447.4,594.4,439.7z"/>
			<path class="st2" d="M736.7,430.8c-4.2-5.4-6.2-11.3-9.7-16.5c-1.9-2.7-3.1-5.9-5-8.7c-2.9-4.4-5-9.3-7.6-13.9
				c-3.9-7.1-8-14.1-11.9-21c1.6-4.9,3.1-9.6,4.6-14.2c1.9-5.9,3-11.9,5.5-17.6c0.8-1.9,0.9-4.1,1.5-7.5c1,3,1.9,4.7,2,6.5
				c0,1.9,1,3.5,1.1,5.2c0.3,4.2,1.8,8.1,2.7,12.1c0.8,3.7,0.8,7.8,3.1,11.1c-0.3,6.4,3.1,12.1,3.5,18.5c0.2,3.3,1.6,6.5,2.3,9.8
				c0.8,3.3,1.3,6.6,2.2,9.9c0.9,3.3,1.8,6.5,2.3,9.9c0.5,3.3,2.1,6.4,2.2,9.9c0,0.8,0.9,1.6,1,2.4
				C736.9,427.8,736.7,429.1,736.7,430.8z"/>
			<path class="st2" d="M628.6,372.4c-0.9,1.5-1.7,2.5-2.3,3.7c-4.3,8.5-9.3,16.6-13.8,25c-4.7,8.9-10.3,17.3-14.7,26.4
				c-0.7,1.4-1.9,2.6-3,4.1c-0.1-0.6-0.5-1.2-0.3-1.7c2.4-8,3.7-16.3,5.8-24.4c1.8-7,2.7-14.3,5.5-21c-0.3-6.4,3.2-12.1,3.6-18.5
				c0.2-3.3,1.8-6.5,2.4-9.8c0.3-1.5,0.8-3.1,1-4.7c0.2-1.4,0.7-2.7,1.1-4.1c1.5-4.7,1.8-9.8,3.6-14.4c0.1-0.1,0.3-0.2,0.4-0.4
				c3.5,11.8,6.9,23.7,10.7,35.4C629,369.4,628.6,371.3,628.6,372.4z"/>
			<path class="st2" d="M665.4,481.1c-3.7-14.3-9-27.4-12.4-41.4c8.9,0,17.1,0,25.3,0C678.3,442.9,669.4,471.7,665.4,481.1z"/>
			<path class="st2" d="M736.8,430.3c0.3,0.3,0.6,0.5,0.9,0.8c-0.1,0.1-0.2,0.2-0.4,0.4c-0.3-0.3-0.5-0.6-0.8-0.9
				C736.7,430.5,736.8,430.4,736.8,430.3z"/>
		</g>
	</g>
</g>
<g id="Layer_5" class="st0">
	<g id="Layer_2" class="st1">
		<polygon class="st3" points="665.9,259.5 618,329.9 593,438.6 665.9,485 		"/>
	</g>
	<g id="Layer_3" class="st1">
		<rect x="580.5" y="437.5" class="st4" width="200" height="1"/>
		
			<rect x="544.4" y="414.5" transform="matrix(0.289 0.9573 -0.9573 0.289 855.4177 -321.821)" class="st4" width="200" height="1"/>
		<rect x="540.4" y="353.8" transform="matrix(-0.5 0.866 -0.866 -0.5 1267.3521 -23.206)" class="st4" width="200" height="1"/>
	</g>
</g>
<g id="Layer_5_copy">
	<g id="Layer_2_copy">
	</g>
	<polygon class="st5" points="618.1,329.7 618,329.9 594.3,433.1 630.4,370.5 	"/>
	<polygon class="st5" points="680.2,437.5 700.4,370.6 666,311 631.5,370.6 651.7,437.5 	"/>
	<polygon class="st5" points="593.5,436.4 593.3,437.5 650.6,437.5 630.8,371.8 	"/>
	<path class="st5" d="M652,438.5"/>
	<polygon class="st5" points="593,438.5 593,438.6 664.8,484.3 650.9,438.5 	"/>
	<polygon class="st5" points="713.8,329.7 713.9,329.9 737.6,433.1 701.5,370.5 	"/>
	<polygon class="st5" points="738.4,436.4 738.6,437.5 681.3,437.5 701.1,371.8 	"/>
	<polygon class="st5" points="679.9,438.5 666,484.6 652,438.5 	"/>
	<polygon class="st5" points="738.9,438.5 738.9,438.6 667.1,484.3 681,438.5 	"/>
	<polygon class="st5" points="665.4,260.2 618.8,328.7 631.1,369.3 665.4,309.8 	"/>
	<polygon class="st5" points="666.4,260.2 666.4,309.8 700.8,369.3 713.1,328.7 	"/>
	<g id="Layer_3_copy" class="st0">
		<g class="st1">
			<polygon class="st6" points="592.9,437.5 593.3,437.5 593.5,436.4 			"/>
			<polygon class="st4" points="580.5,437.5 580.5,438.5 591.2,438.5 591.7,437.5 			"/>
			<rect x="665.9" y="437.5" class="st4" width="114.6" height="1"/>
			<polygon class="st4" points="592.9,437.5 592.3,438.5 593,438.5 593.3,437.5 			"/>
			<polygon class="st4" points="652,438.5 665.9,438.5 665.9,437.5 651.7,437.5 			"/>
			<polygon class="st4" points="650.6,437.5 593.3,437.5 593,438.5 650.9,438.5 			"/>
			<polygon class="st4" points="664.8,484.3 672.8,510.9 673.8,510.6 665.9,484.6 665.9,485 			"/>
			<polygon class="st4" points="616,319.1 615,319.4 618.1,329.7 618.8,328.7 			"/>
			<polygon class="st4" points="631.5,370.6 630.8,371.8 650.6,437.5 651.7,437.5 			"/>
			<polygon class="st4" points="650.9,438.5 664.8,484.3 665.9,485 665.9,484.6 652,438.5 			"/>
			<polygon class="st4" points="631.1,369.3 618.8,328.7 618.1,329.7 630.4,370.5 			"/>
			<polygon class="st4" points="650.6,437.5 650.9,438.5 652,438.5 651.7,437.5 			"/>
			<polygon class="st4" points="690.8,267.9 689.9,267.4 665.9,309 665.9,311 			"/>
			<polygon class="st4" points="589.9,440.6 590.8,441.1 592.3,438.5 591.2,438.5 			"/>
			<polygon class="st4" points="593.5,436.4 594.3,433.1 591.7,437.5 592.9,437.5 			"/>
			<polygon class="st4" points="630.8,371.8 630.4,370.5 594.3,433.1 593.5,436.4 			"/>
			<polygon class="st4" points="631.5,370.6 665.9,311 665.9,309 631.1,369.3 			"/>
			<polygon class="st4" points="591.7,437.5 591.2,438.5 592.3,438.5 592.9,437.5 			"/>
			<polygon class="st4" points="631.1,369.3 630.4,370.5 630.8,371.8 631.5,370.6 			"/>
		</g>
	</g>
</g>
</svg>
