<?xml version="1.0" encoding="utf-8"?>
<!-- Generator: Adobe Illustrator 21.1.0, SVG Export Plug-In . SVG Version: 6.00 Build 0)  -->
<svg version="1.2" baseProfile="tiny" id="Layer_5_copy"
	 xmlns="http://www.w3.org/2000/svg" xmlns:xlink="http://www.w3.org/1999/xlink" x="0px" y="0px" viewBox="0 0 147 227.8"
	 xml:space="preserve">
<polygon fill="#34495E" stroke="#FFFFFF" stroke-miterlimit="10" points="25.7,71.2 25.6,71.3 1.8,174.6 38,112 "/>
<polygon fill="#34495E" stroke="#FFFFFF" stroke-miterlimit="10" points="87.8,179 108,112.1 73.6,52.5 39.1,112.1 59.3,179 "/>
<polygon fill="#34495E" stroke="#FFFFFF" stroke-miterlimit="10" points="1.1,177.9 0.8,179 58.2,179 38.4,113.3 "/>
<polygon fill="#34495E" stroke="#FFFFFF" stroke-miterlimit="10" points="0.6,180 0.6,180.1 72.3,225.7 58.5,180 "/>
<polygon fill="#34495E" stroke="#FFFFFF" stroke-miterlimit="10" points="121.4,71.2 121.5,71.3 145.2,174.6 109.1,112 "/>
<polygon fill="#34495E" stroke="#FFFFFF" stroke-miterlimit="10" points="146,177.9 146.2,179 88.8,179 108.7,113.3 "/>
<polygon fill="#34495E" stroke="#FFFFFF" stroke-miterlimit="10" points="87.5,180 73.6,226 59.6,180 "/>
<polygon fill="#34495E" stroke="#FFFFFF" stroke-miterlimit="10" points="146.4,180 146.5,180.1 74.7,225.7 88.5,180 "/>
<polygon fill="#34495E" stroke="#FFFFFF" stroke-miterlimit="10" points="73,1.6 26.4,70.1 38.7,110.8 73,51.3 "/>
<polygon fill="#34495E" stroke="#FFFFFF" stroke-miterlimit="10" points="74,1.6 74,51.3 108.4,110.8 120.6,70.1 "/>
</svg>
